PathFileType	4	(X/Y/Z)	C:\Users\Willi\SynologyDrive\Deimel_MSc_Deadlift\Athlete_03\Athlete_3_22_07_06\dl_75\marker_experimental.trc
DataRate	CameraRate	NumFrames	NumMarkers	Units	OrigDataRate	OrigDataStartFrame	OrigNumFrames
200.000000	200.000000	4	59	mm	200.000000	2498	2855
Frame#	Time	BR			GLAB			RFHD			LFHD			C7			T6			SPINMOL			SPINM2			SPINM3			T12			BELTOL			BELT2			BELT3			SACROL			SACR2			SACR3			LTHOL			LTH2			LTH3			LSHAOL			LSHA2			LSHA3			LHEE			LTOE			LM5			RTHOL			RTH2			RTH3			RSHAOL			RSHA2			RSHA3			RHEE			RTOE			RM5			STRN			XIPH			LACR			LUAOL			LUA2			LUA3			LLAOL			LLA2			LLA3			LWRU			RACR			RUAOL			RUA2			RUA3			RLAOL			RLA2			RLA3			RWRU			BL			USERMO0			USERMO1			USERMO2			USERMO3			USERMO4			USERMO5			
		X1	Y1	Z1	X2	Y2	Z2	X3	Y3	Z3	X4	Y4	Z4	X5	Y5	Z5	X6	Y6	Z6	X7	Y7	Z7	X8	Y8	Z8	X9	Y9	Z9	X10	Y10	Z10	X11	Y11	Z11	X12	Y12	Z12	X13	Y13	Z13	X14	Y14	Z14	X15	Y15	Z15	X16	Y16	Z16	X17	Y17	Z17	X18	Y18	Z18	X19	Y19	Z19	X20	Y20	Z20	X21	Y21	Z21	X22	Y22	Z22	X23	Y23	Z23	X24	Y24	Z24	X25	Y25	Z25	X26	Y26	Z26	X27	Y27	Z27	X28	Y28	Z28	X29	Y29	Z29	X30	Y30	Z30	X31	Y31	Z31	X32	Y32	Z32	X33	Y33	Z33	X34	Y34	Z34	X35	Y35	Z35	X36	Y36	Z36	X37	Y37	Z37	X38	Y38	Z38	X39	Y39	Z39	X40	Y40	Z40	X41	Y41	Z41	X42	Y42	Z42	X43	Y43	Z43	X44	Y44	Z44	X45	Y45	Z45	X46	Y46	Z46	X47	Y47	Z47	X48	Y48	Z48	X49	Y49	Z49	X50	Y50	Z50	X51	Y51	Z51	X52	Y52	Z52	X53	Y53	Z53	X54	Y54	Z54	X55	Y55	Z55	X56	Y56	Z56	X57	Y57	Z57	X58	Y58	Z58	X59	Y59	Z59	

2499	12.49	197.2295532226562	247.8964538574219	-90.46838378906249	518.3563232421875	884.3992309570314	-1193.308959960938	518.4708862304688	951.2485961914064	-1120.718994140625	514.8255004882812	939.7703247070314	-1278.222045898438	323.5538024902344	1043.9521484375	-1197.96533203125	125.9932556152344	1019.688842773438	-1198.484497070312	98.66622161865234	1015.169799804688	-1200.016967773438	45.24034881591797	998.9539794921876	-1142.493041992188	40.05271148681641	996.4423217773439	-1191.765502929688	8.197280883789062	975.9935913085939	-1190.288696289062	-18.27936935424805	998.2173461914064	-1189.39990234375	-71.36470031738281	974.8621826171876	-1134.348754882812	-77.76244354248047	980.5897216796876	-1183.786865234375	-181.0408935546875	900.9290161132814	-1205.251342773438	-167.7865142822266	903.7048339843751	-1155.709228515625	-223.4773864746094	869.5524291992189	-1164.562866210938	-27.29583930969238	677.2442626953126	-1416.934204101562	-22.47996139526367	597.7869873046876	-1409.240112304688	14.63840293884277	631.7542114257814	-1414.240234375	101.7876510620117	337.1356811523439	-1418.39013671875	55.70460510253906	273.4253234863282	-1411.045288085938	105.3238754272461	275.4603881835939	-1411.3974609375	2.460315227508545	66.81749725341805	-1318.998291015625	213.3236541748047	73.21765899658212	-1330.004272460938	166.3816223144531	54.80503082275399	-1435.5166015625	6.13493013381958	637.3737792968751	-978.8412475585938	84.83626556396484	623.6379394531251	-980.7216796875	47.16630172729492	590.7232055664064	-982.3177490234375	96.48552703857422	327.6161804199219	-996.9218139648438	128.3586273193359	255.6044464111329	-1006.910705566406	80.03929901123047	269.7940673828126	-1009.416564941406	1.352656364440918	64.33618164062507	-1114.497314453125	212.2893371582031	67.46764373779304	-1093.532104492188	166.0715789794922	66.38955688476568	-996.3837280273438	312.9834899902344	875.0025634765626	-1206.014892578125	200.7796173095703	772.2094116210939	-1190.789184570312	298.7073059082031	923.2605590820314	-1405.199951171875	246.9863433837891	792.5998535156251	-1463.926879882812	209.7051544189453	741.3616333007814	-1483.847290039062	254.1678466796875	727.1510620117189	-1461.909057617188	225.6737518310547	507.6788940429689	-1461.938842773438	201.6120452880859	447.8826599121095	-1471.713134765625	234.7362365722656	450.5079040527345	-1434.493408203125	210.3676147460938	356.7100524902345	-1452.140258789062	317.3408813476562	913.1355590820314	-1008.882141113281	271.0592651367188	748.8933715820314	-971.9548950195312	274.5880126953125	689.9952392578126	-1001.141784667969	256.21630859375	686.6466064453126	-954.1820068359375	236.9333190917969	493.9522399902344	-962.1900024414062	241.2764892578125	438.5714721679688	-994.0532836914062	221.8228302001953	434.7087097167969	-946.6018676757812	213.2013397216797	356.9297180175782	-948.7819213867188	155.3759613037109	244.4466094970705	-2313.611328125	0.01149170007556677	1.00901997089386	-0.4817619919776916	0.3162389993667603	2.925820112228394	-0.3471660017967222	2.923810005187988	0.07666049897670746	-0.03700809925794601	0.010992799885571	0.00969946011900902	-0.02264210022985935	0.01790419965982437	0.007830570451915264	-0.009843150153756142	0.0091086495667696	0	0	
2500	12.495	197.1845855712891	248.0418701171875	-90.4523239135742	518.8785400390625	883.5463867187501	-1193.132446289062	519.026611328125	950.4495239257814	-1120.626708984375	515.2974853515625	938.8244628906251	-1278.114990234375	324.1968383789062	1043.336669921875	-1197.83837890625	126.610107421875	1019.520812988281	-1198.3447265625	99.24955749511719	1015.089904785156	-1199.88232421875	45.7991828918457	998.9661254882814	-1142.35302734375	40.60294342041016	996.4850463867189	-1191.634521484375	8.647956848144531	976.0735473632814	-1190.139526367188	-17.7838191986084	998.4234008789064	-1189.236450195312	-70.89472198486328	975.1524658203126	-1134.16455078125	-77.29948425292969	980.9094238281251	-1183.599487304688	-180.7546234130859	901.2099609375001	-1205.03662109375	-167.4859008789062	903.9693603515626	-1155.493896484375	-223.2211456298828	869.8831787109376	-1164.335571289062	-27.23911476135254	677.4122924804689	-1416.697509765625	-22.4515552520752	597.9539794921876	-1408.998413085938	14.67914581298828	631.9090576171876	-1414.00048828125	101.6804885864258	337.2258300781251	-1418.186767578125	55.59642791748047	273.5146789550782	-1410.863647460938	105.2141342163086	275.5470581054689	-1411.249755859375	2.447426080703735	66.7963409423829	-1318.992431640625	213.3116760253906	73.23110198974618	-1329.995727539062	166.3808135986328	54.82413864135751	-1435.503784179688	6.261059761047363	637.4938354492189	-978.7860107421875	84.96097564697266	623.7386474609376	-980.71923828125	47.2857551574707	590.8321533203126	-982.2814331054688	96.46335601806641	327.6563720703126	-996.95263671875	128.3233032226562	255.6373291015626	-1006.924011230469	80.00742340087891	269.8363342285157	-1009.441284179688	1.34465765953064	64.31945037841804	-1114.488525390625	212.2846527099609	67.47689819335945	-1093.5400390625	166.0722351074219	66.39516448974615	-996.3946533203125	313.309326171875	874.3942871093751	-1205.873291015625	200.8191833496094	771.8953247070314	-1190.7373046875	299.2647399902344	922.7805786132814	-1405.051025390625	247.4878387451172	792.1978759765626	-1463.838989257812	210.1722869873047	741.0003051757814	-1483.793701171875	254.5947723388672	726.7394409179689	-1461.797973632812	225.9749145507812	507.2894592285157	-1461.857543945312	201.861572265625	447.504852294922	-1471.678955078125	234.8738555908203	450.1035766601564	-1434.375244140625	210.3905639648438	356.3260498046876	-1452.088500976562	317.814453125	912.6507568359376	-1008.794555664062	271.33984375	748.5119628906251	-971.912841796875	274.7394104003906	689.6248779296876	-1001.132202148438	256.4421081542969	686.2777709960939	-954.140625	236.8604431152344	493.6560668945313	-962.0416259765625	241.2530670166016	438.2802734375001	-993.9177856445312	221.7007293701172	434.3879699707032	-946.5077514648438	213.1188812255859	356.6588439941407	-948.7584228515625	155.4278106689453	244.5833282470705	-2313.630859375	0.01154449954628944	0.9963570237159729	-0.4674710035324096	0.3053230047225952	2.923830032348633	-0.3312419950962065	2.924459934234619	0.07682029902935028	-0.03554869815707206	0.0108110997825861	0.009356380440294744	-0.02346290089190006	0.01791420020163059	0.007662740070372821	-0.009645230136811733	0.009038929827511311	0	0	
2501	12.5	197.1388702392578	248.1821594238281	-90.43923187255858	519.4111328125	882.6783447265626	-1192.949462890625	519.5938720703125	949.6369628906251	-1120.525268554688	515.7787475585938	937.8640747070314	-1277.99951171875	324.8531799316406	1042.715942382812	-1197.703979492188	127.2385940551758	1019.360107421875	-1198.202270507812	99.84507751464844	1015.018676757813	-1199.745971679688	46.36818695068359	998.9960327148439	-1142.211059570312	41.16379928588867	996.5406494140626	-1191.501953125	9.109359741210938	976.1715087890626	-1189.989990234375	-17.28343772888184	998.6408081054689	-1189.067504882812	-70.42014312744141	975.4564208984376	-1133.974609375	-76.83200073242188	981.2412109375001	-1183.406127929688	-180.4613800048828	901.4978027343751	-1204.807861328125	-167.1760406494141	904.2430419921876	-1155.266845703125	-222.9549407958984	870.2211914062501	-1164.093383789062	-27.18108749389648	677.5834350585939	-1416.465576171875	-22.42076301574707	598.1231689453126	-1408.75537109375	14.72200107574463	632.0653076171876	-1413.7626953125	101.5696563720703	337.3147583007814	-1417.984985351562	55.48252105712891	273.6053771972657	-1410.68017578125	105.0991439819336	275.633026123047	-1411.100341796875	2.433205127716064	66.77357482910165	-1318.9853515625	213.2985382080078	73.24528503417977	-1329.98779296875	166.3797760009766	54.84377670288094	-1435.49072265625	6.396708488464355	637.6217041015626	-978.7290649414062	85.09446716308594	623.8446044921876	-980.718994140625	47.41312026977539	590.9472656250001	-982.242919921875	96.44384002685547	327.6971740722657	-996.98291015625	128.2903900146484	255.670639038086	-1006.938171386719	79.97819519042969	269.8795166015626	-1009.466491699219	1.337100505828857	64.30345916748054	-1114.479370117188	212.2799682617188	67.48590850830085	-1093.547973632812	166.0732269287109	66.40100860595709	-996.405517578125	313.6358947753906	873.7800292968751	-1205.721313476562	200.8525695800781	771.5842895507814	-1190.6767578125	299.8349609375	922.2993774414064	-1404.894775390625	247.9930572509766	791.8078613281251	-1463.763305664062	210.6416625976562	740.6557006835939	-1483.76171875	255.0213470458984	726.3393554687501	-1461.7080078125	226.2567138671875	506.9070434570314	-1461.807861328125	202.0926055908203	447.1357727050782	-1471.66845703125	235.0032653808594	449.7109680175782	-1434.289184570312	210.4064025878906	355.9549255371095	-1452.0498046875	318.2856750488281	912.1623535156251	-1008.6953125	271.5888671875	748.1373901367189	-971.841064453125	274.8548889160156	689.2609863281251	-1001.091796875	256.6272888183594	685.9176635742189	-954.0709228515625	236.7488098144531	493.3676147460938	-961.8485717773438	241.2155303955078	437.9981384277344	-993.7380981445312	221.5388488769531	434.0708923339844	-946.3839721679688	213.0169525146484	356.3970336914063	-948.7269287109375	155.4776000976562	244.7135620117189	-2313.648681640625	0.01162580028176308	0.9824789762496948	-0.4563570022583007	0.2957969903945923	2.921989917755127	-0.3175249993801115	2.925040006637573	0.07659360021352768	-0.03434560075402259	0.01066850032657385	0.009006850421428682	-0.02447989955544472	0.01797089911997318	0.007532959803938867	-0.009429340250790119	0.009016050025820732	0	0	
2502	12.505	197.0917053222656	248.3111419677734	-90.42917633056639	519.9483642578125	881.7944946289064	-1192.7587890625	520.168212890625	948.8102416992189	-1120.414184570312	516.2664794921875	936.8880004882814	-1277.875366210938	325.5216064453125	1042.093627929688	-1197.563354492188	127.876091003418	1019.209594726563	-1198.059448242188	100.4494857788086	1014.958435058594	-1199.60986328125	46.94398498535156	999.0449829101564	-1142.069580078125	41.73232650756836	996.6099853515626	-1191.369995117188	9.578377723693848	976.2888183593751	-1189.84326171875	-16.78400230407715	998.8699951171876	-1188.894897460938	-69.946533203125	975.7736206054689	-1133.78076171875	-76.36525726318359	981.5836181640626	-1183.209106445312	-180.1642761230469	901.7894897460939	-1204.567749023438	-166.8605194091797	904.5232543945314	-1155.030517578125	-222.6816253662109	870.5629882812501	-1163.8388671875	-27.11837768554688	677.7565917968751	-1416.237915039062	-22.38378524780273	598.2934570312501	-1408.512329101562	14.77058792114258	632.2223510742189	-1413.52685546875	101.4593505859375	337.4020080566407	-1417.786865234375	55.36682510375977	273.6969299316407	-1410.497436523438	104.9828643798828	275.717742919922	-1410.950805664062	2.418110132217407	66.74983978271493	-1318.9775390625	213.2846069335938	73.25997161865243	-1329.980224609375	166.3786773681641	54.86386489868173	-1435.477783203125	6.541370868682861	637.7572631835939	-978.6690063476562	85.236328125	623.9559936523439	-980.7190551757812	47.5479850769043	591.0686035156251	-982.2003784179688	96.42696380615234	327.7383117675782	-997.01025390625	128.2599334716797	255.7040557861329	-1006.951110839844	79.95168304443359	269.9233093261719	-1009.490478515625	1.330211400985718	64.28841400146491	-1114.469604492188	212.2753601074219	67.49483489990241	-1093.555541992188	166.0745239257812	66.40687561035162	-996.4158935546875	313.9627990722656	873.1636352539064	-1205.560791015625	200.8798370361328	771.2797241210939	-1190.607421875	300.4170837402344	921.8190307617189	-1404.732543945312	248.5031127929688	791.4332275390626	-1463.702026367188	211.1144104003906	740.3322143554689	-1483.756225585938	255.4480895996094	725.9542846679689	-1461.643920898438	226.5158233642578	506.5336303710939	-1461.796875	202.3021545410156	446.7763671875001	-1471.685791015625	235.1238098144531	449.3323669433595	-1434.241088867188	210.4149780273438	355.5982360839845	-1452.026977539062	318.7560424804688	911.6712646484376	-1008.584655761719	271.8093566894531	747.7697143554689	-971.7348022460938	274.9368286132812	688.9027709960939	-1001.013488769531	256.7746276855469	685.5673217773439	-953.9655151367188	236.6026306152344	493.0871887207032	-961.6099243164062	241.1656494140625	437.7251892089844	-993.5144653320312	221.3415222167969	433.7573242187501	-946.2296752929688	212.8984069824219	356.1443481445313	-948.6862182617188	155.5248413085938	244.8367309570314	-2313.663818359375	0.011731400154531	0.9671220183372498	-0.44896000623703	0.2878209948539734	2.920269966125488	-0.3064199984073637	2.92549991607666	0.07597369700670242	-0.0334038995206356	0.01056359987705946	0.008658709935843946	-0.02560920082032681	0.01806269958615303	0.007441900204867125	-0.00919381994754076	0.009032219648361206	0	0	
